<svg id="svg" version="1.1" xmlns="http://www.w3.org/2000/svg" xmlns:xlink="http://www.w3.org/1999/xlink" width="400" height="400" viewBox="0, 0, 400,400"><g id="svgg"><path id="path0" d="M219.750 99.878 C 219.361 100.715,218.878 101.512,218.679 101.650 C 217.940 102.158,217.819 107.200,218.545 107.200 C 219.238 107.200,219.451 108.198,218.839 108.576 C 218.641 108.698,218.353 109.879,218.200 111.199 C 218.047 112.520,217.773 113.600,217.593 113.600 C 217.412 113.600,217.138 114.770,216.985 116.200 C 216.832 117.630,216.548 118.800,216.353 118.800 C 216.159 118.800,216.000 119.329,216.000 119.976 C 216.000 120.623,215.838 121.253,215.641 121.375 C 215.443 121.497,215.155 122.858,215.000 124.398 C 214.845 125.939,214.574 127.200,214.397 127.200 C 214.220 127.200,213.946 128.910,213.790 131.000 C 213.633 133.090,213.346 134.800,213.152 134.800 C 212.959 134.800,212.800 136.049,212.800 137.576 C 212.800 139.103,212.635 140.455,212.434 140.579 C 212.233 140.704,211.941 142.154,211.787 143.803 C 211.632 145.451,211.368 146.800,211.200 146.800 C 211.031 146.800,210.768 147.970,210.615 149.400 C 210.462 150.830,210.171 152.000,209.968 152.000 C 209.766 152.000,209.600 152.529,209.600 153.176 C 209.600 153.823,209.441 154.451,209.247 154.571 C 209.052 154.691,208.764 155.827,208.606 157.095 C 208.448 158.363,208.158 159.500,207.961 159.622 C 207.765 159.745,207.487 160.960,207.345 162.322 C 207.203 163.685,206.932 164.800,206.743 164.800 C 206.554 164.800,206.400 165.329,206.400 165.976 C 206.400 166.623,206.230 167.258,206.023 167.386 C 205.816 167.514,205.523 168.874,205.372 170.409 C 205.220 171.944,204.959 173.200,204.790 173.200 C 204.621 173.200,204.356 174.640,204.200 176.400 C 204.044 178.160,203.755 179.600,203.558 179.600 C 203.361 179.600,203.200 180.320,203.200 181.200 C 203.200 182.080,203.039 182.800,202.842 182.800 C 202.645 182.800,202.356 184.240,202.200 186.000 C 202.044 187.760,201.772 189.200,201.594 189.200 C 201.417 189.200,201.144 190.733,200.988 192.606 C 200.832 194.479,200.546 196.110,200.352 196.230 C 200.158 196.349,200.000 197.236,200.000 198.200 C 200.000 199.164,199.839 200.052,199.643 200.174 C 199.446 200.295,199.157 202.016,199.000 203.997 C 198.843 205.979,198.576 207.600,198.405 207.600 C 198.235 207.600,197.967 209.310,197.810 211.399 C 197.654 213.489,197.362 215.300,197.163 215.423 C 196.963 215.546,196.800 216.436,196.800 217.400 C 196.800 218.364,196.646 219.248,196.458 219.364 C 196.270 219.480,195.989 221.421,195.834 223.676 C 195.678 225.932,195.402 227.962,195.220 228.188 C 195.038 228.415,194.759 230.627,194.600 233.104 C 194.442 235.581,194.152 237.706,193.956 237.827 C 193.760 237.948,193.600 239.106,193.600 240.400 C 193.600 241.694,193.438 242.853,193.240 242.975 C 193.043 243.097,192.752 245.493,192.594 248.299 C 192.436 251.104,192.137 253.611,191.930 253.869 C 191.326 254.622,191.331 273.187,191.936 273.561 C 192.264 273.763,192.516 275.526,192.678 278.748 C 192.813 281.433,193.076 283.723,193.262 283.838 C 193.448 283.953,193.600 286.017,193.600 288.424 L 193.600 292.800 195.200 292.800 L 196.800 292.800 196.800 288.024 C 196.800 285.397,196.957 283.150,197.150 283.031 C 197.342 282.912,197.579 281.854,197.677 280.681 C 197.803 279.163,198.114 278.286,198.754 277.646 C 200.397 276.003,200.680 276.913,200.877 284.483 C 201.001 289.268,201.199 291.400,201.528 291.509 C 201.787 291.596,202.000 291.882,202.000 292.145 C 202.000 293.095,204.693 295.200,205.908 295.200 C 207.160 295.200,207.588 293.400,207.597 288.100 C 207.599 287.165,207.754 286.400,207.941 286.400 C 208.129 286.400,208.398 285.038,208.538 283.374 C 208.760 280.755,209.351 279.200,210.127 279.200 C 210.228 279.200,210.441 281.585,210.600 284.500 C 210.758 287.415,211.024 289.980,211.190 290.200 C 211.355 290.420,211.608 291.641,211.751 292.914 C 212.004 295.172,212.472 296.396,213.515 297.528 C 214.085 298.147,221.545 298.701,223.316 298.257 C 224.179 298.040,224.366 297.704,224.611 295.918 C 224.769 294.771,225.056 293.510,225.249 293.116 C 225.442 292.722,225.763 292.069,225.963 291.664 C 226.163 291.260,226.454 289.910,226.609 288.664 C 226.765 287.419,227.037 286.400,227.214 286.400 C 227.391 286.400,227.662 285.230,227.815 283.800 C 227.968 282.370,228.252 281.200,228.447 281.200 C 228.641 281.200,228.800 280.480,228.800 279.600 C 228.800 278.720,228.961 278.000,229.158 278.000 C 229.355 278.000,229.645 276.515,229.803 274.700 C 229.960 272.885,230.242 271.210,230.428 270.978 C 230.615 270.746,230.891 269.081,231.042 267.278 C 231.192 265.475,231.469 264.000,231.658 264.000 C 231.846 264.000,232.000 263.115,232.000 262.033 C 232.000 260.952,232.171 260.007,232.380 259.933 C 232.589 259.860,232.885 258.135,233.037 256.100 C 233.190 254.065,233.447 252.400,233.610 252.400 C 233.772 252.400,234.033 250.510,234.191 248.200 C 234.348 245.890,234.640 244.000,234.838 244.000 C 235.037 244.000,235.200 243.010,235.200 241.800 C 235.200 240.590,235.357 239.600,235.549 239.600 C 235.740 239.600,236.028 237.395,236.187 234.700 C 236.346 232.005,236.625 229.619,236.807 229.397 C 236.988 229.175,237.266 226.610,237.425 223.697 C 237.583 220.784,237.867 218.400,238.056 218.400 C 238.245 218.400,238.406 217.905,238.413 217.300 C 238.442 214.802,238.917 214.650,245.688 214.963 C 249.050 215.118,251.860 215.415,251.933 215.622 C 252.007 215.830,252.772 216.000,253.633 216.000 C 254.495 216.000,255.200 216.180,255.200 216.400 C 255.200 216.620,254.834 216.800,254.387 216.800 C 253.941 216.800,253.476 217.059,253.354 217.376 C 253.233 217.692,252.600 218.068,251.948 218.212 C 251.295 218.355,250.547 218.816,250.285 219.236 C 250.022 219.656,249.581 220.000,249.304 220.000 C 249.011 220.000,248.800 220.502,248.800 221.200 C 248.800 222.388,248.822 222.400,251.000 222.400 C 252.210 222.400,253.200 222.580,253.200 222.800 C 253.200 223.053,256.059 223.200,260.976 223.200 C 265.729 223.200,268.849 223.044,269.000 222.800 C 269.142 222.569,271.271 222.400,274.024 222.400 C 276.941 222.400,278.800 222.244,278.800 222.000 C 278.800 221.780,279.070 221.600,279.400 221.600 C 280.764 221.600,280.034 219.533,277.960 217.524 C 275.322 214.967,275.194 215.023,284.033 214.863 L 291.600 214.725 291.600 216.483 C 291.600 217.449,291.428 218.412,291.217 218.623 C 291.007 218.833,290.711 220.489,290.560 222.303 C 290.409 224.116,290.131 225.600,289.942 225.600 C 289.754 225.600,289.600 226.309,289.600 227.176 C 289.600 228.043,289.435 228.855,289.234 228.979 C 289.033 229.104,288.741 230.554,288.587 232.203 C 288.432 233.851,288.166 235.200,287.995 235.200 C 287.823 235.200,287.556 236.640,287.400 238.400 C 287.244 240.160,286.955 241.600,286.758 241.600 C 286.561 241.600,286.400 242.309,286.400 243.176 C 286.400 244.043,286.235 244.855,286.034 244.979 C 285.833 245.104,285.541 246.554,285.387 248.203 C 285.232 249.851,284.966 251.200,284.795 251.200 C 284.623 251.200,284.356 252.640,284.200 254.400 C 284.044 256.160,283.755 257.600,283.558 257.600 C 283.361 257.600,283.200 258.500,283.200 259.600 C 283.200 260.700,283.036 261.600,282.836 261.600 C 282.636 261.600,282.344 263.130,282.189 265.000 C 282.033 266.870,281.768 268.400,281.600 268.400 C 281.432 268.400,281.167 270.110,281.010 272.199 C 280.854 274.289,280.562 276.100,280.363 276.223 C 280.163 276.346,280.000 277.412,280.000 278.590 C 280.000 279.781,279.806 280.798,279.564 280.879 C 279.012 281.063,278.579 304.021,279.067 307.200 C 279.330 308.913,279.604 309.487,280.302 309.795 C 280.796 310.012,281.200 310.327,281.200 310.495 C 281.200 310.663,282.370 310.800,283.800 310.800 L 286.400 310.800 286.400 307.200 C 286.400 305.220,286.568 303.600,286.773 303.600 C 286.979 303.600,287.222 303.105,287.313 302.500 L 287.480 301.400 287.540 302.500 C 287.573 303.105,287.754 303.600,287.943 303.600 C 288.131 303.600,288.410 305.265,288.563 307.300 C 288.715 309.335,289.011 311.060,289.220 311.133 C 289.429 311.207,289.600 311.702,289.600 312.233 C 289.600 312.765,289.760 313.200,289.957 313.200 C 290.153 313.200,290.418 313.605,290.545 314.100 C 291.257 316.860,301.600 316.879,301.600 314.120 C 301.600 313.614,301.780 313.200,302.000 313.200 C 302.220 313.200,302.400 312.750,302.400 312.200 C 302.400 311.650,302.559 311.200,302.754 311.200 C 302.949 311.200,303.232 310.210,303.383 309.000 C 303.534 307.790,303.812 306.800,304.000 306.800 C 304.188 306.800,304.466 305.810,304.617 304.600 C 304.768 303.390,305.051 302.400,305.246 302.400 C 305.441 302.400,305.600 301.950,305.600 301.400 C 305.600 300.850,305.760 300.400,305.955 300.400 C 306.150 300.400,306.430 299.594,306.578 298.609 C 306.725 297.624,307.016 296.714,307.223 296.586 C 307.430 296.458,307.600 296.095,307.600 295.779 C 307.600 294.963,308.929 292.000,309.294 292.000 C 309.462 292.000,309.600 294.340,309.600 297.200 C 309.600 300.060,309.465 302.401,309.300 302.403 C 308.816 302.408,308.000 304.464,308.000 305.680 C 308.000 306.296,308.180 306.800,308.400 306.800 C 308.620 306.800,308.800 307.070,308.800 307.400 C 308.800 307.730,308.980 308.000,309.200 308.000 C 309.972 308.000,309.640 310.583,308.800 311.107 C 307.018 312.220,309.313 316.000,311.771 316.000 C 313.429 316.000,313.893 315.213,314.206 311.869 C 314.365 310.181,314.653 308.800,314.847 308.800 C 315.041 308.800,315.200 308.091,315.200 307.224 C 315.200 306.357,315.367 305.544,315.572 305.417 C 315.777 305.291,316.055 304.155,316.192 302.894 C 316.328 301.632,316.597 300.309,316.790 299.952 C 316.983 299.596,317.268 298.017,317.423 296.444 C 317.578 294.870,317.861 293.486,318.053 293.368 C 318.244 293.249,318.400 292.544,318.400 291.800 C 318.400 291.056,318.566 290.345,318.769 290.219 C 318.971 290.094,319.250 288.778,319.388 287.296 C 319.525 285.813,319.803 284.298,320.005 283.928 C 320.207 283.558,320.493 282.073,320.641 280.628 C 320.789 279.183,321.066 278.000,321.255 278.000 C 321.445 278.000,321.600 277.295,321.600 276.433 C 321.600 275.572,321.775 274.807,321.989 274.733 C 322.203 274.660,322.500 273.250,322.650 271.600 C 322.799 269.950,323.073 268.500,323.259 268.377 C 323.445 268.255,323.714 266.770,323.857 265.077 C 324.000 263.385,324.271 262.000,324.459 262.000 C 324.646 262.000,324.800 261.280,324.800 260.400 C 324.800 259.520,324.961 258.800,325.158 258.800 C 325.355 258.800,325.644 257.360,325.800 255.600 C 325.956 253.840,326.226 252.400,326.400 252.400 C 326.574 252.400,326.844 250.960,327.000 249.200 C 327.156 247.440,327.445 246.000,327.642 246.000 C 327.839 246.000,328.000 245.280,328.000 244.400 C 328.000 243.520,328.161 242.800,328.358 242.800 C 328.555 242.800,328.844 241.360,329.000 239.600 C 329.156 237.840,329.423 236.400,329.594 236.400 C 329.765 236.400,330.033 234.871,330.188 233.001 C 330.344 231.132,330.635 229.502,330.836 229.378 C 331.036 229.254,331.200 228.544,331.200 227.800 C 331.200 227.056,331.358 226.349,331.552 226.230 C 331.746 226.110,332.032 224.479,332.188 222.606 C 332.344 220.733,332.617 219.200,332.794 219.200 C 332.972 219.200,333.244 217.760,333.400 216.000 C 333.556 214.240,333.845 212.800,334.042 212.800 C 334.239 212.800,334.400 211.900,334.400 210.800 C 334.400 209.700,334.564 208.800,334.764 208.800 C 334.964 208.800,335.256 207.270,335.411 205.400 C 335.567 203.530,335.835 202.000,336.006 202.000 C 336.177 202.000,336.444 200.560,336.600 198.800 C 336.756 197.040,337.045 195.600,337.242 195.600 C 337.439 195.600,337.600 194.700,337.600 193.600 C 337.600 192.500,337.759 191.600,337.953 191.600 C 338.147 191.600,338.433 190.071,338.588 188.201 C 338.744 186.332,339.019 184.712,339.198 184.601 C 339.378 184.490,339.654 182.689,339.810 180.599 C 339.967 178.510,340.254 176.800,340.448 176.800 C 340.641 176.800,340.800 176.026,340.800 175.080 C 340.800 174.134,340.972 173.188,341.183 172.977 C 341.393 172.767,341.689 171.111,341.840 169.297 C 341.991 167.484,342.252 166.000,342.420 166.000 C 342.588 166.000,342.854 164.290,343.010 162.200 C 343.167 160.110,343.454 158.400,343.648 158.400 C 343.841 158.400,344.000 157.500,344.000 156.400 C 344.000 155.300,344.166 154.400,344.368 154.400 C 344.570 154.400,344.864 152.596,345.020 150.391 C 345.176 148.187,345.447 146.295,345.620 146.187 C 345.794 146.080,346.064 144.194,346.220 141.996 C 346.376 139.798,346.660 138.000,346.852 138.000 C 347.043 138.000,347.200 137.100,347.200 136.000 C 347.200 134.900,347.358 134.000,347.552 134.000 C 347.745 134.000,348.034 131.749,348.192 128.999 C 348.351 126.248,348.643 123.897,348.840 123.775 C 349.038 123.653,349.200 120.593,349.200 116.976 L 349.200 110.400 347.100 110.420 C 344.156 110.447,342.106 112.391,341.737 115.503 C 341.515 117.381,339.600 118.943,339.600 117.247 C 339.600 117.052,339.241 116.799,338.802 116.685 C 338.363 116.570,337.882 116.144,337.732 115.738 C 337.583 115.332,337.222 114.856,336.930 114.680 C 336.639 114.504,336.400 113.919,336.400 113.380 C 336.400 112.841,336.233 112.400,336.029 112.400 C 335.825 112.400,335.534 111.410,335.383 110.200 C 335.232 108.990,334.949 108.000,334.754 108.000 C 334.559 108.000,334.400 107.280,334.400 106.400 C 334.400 105.520,334.243 104.800,334.051 104.800 C 333.859 104.800,333.615 103.894,333.508 102.787 C 333.264 100.244,332.040 98.800,330.130 98.800 C 329.399 98.800,328.800 98.954,328.800 99.143 C 328.800 99.332,327.675 99.603,326.300 99.747 C 324.925 99.890,323.740 100.186,323.667 100.404 C 323.593 100.622,323.278 100.800,322.967 100.800 C 322.655 100.800,322.400 101.070,322.400 101.400 C 322.400 101.730,322.220 102.000,322.000 102.000 C 321.780 102.000,321.600 102.979,321.600 104.176 C 321.600 105.373,321.438 106.453,321.240 106.575 C 321.043 106.697,320.751 109.048,320.592 111.799 C 320.434 114.549,320.169 116.800,320.003 116.800 C 319.838 116.800,319.574 118.960,319.416 121.600 C 319.259 124.240,318.966 126.400,318.765 126.400 C 318.564 126.400,318.400 127.379,318.400 128.576 C 318.400 129.773,318.240 130.852,318.043 130.973 C 317.847 131.094,317.558 132.995,317.400 135.197 C 317.243 137.399,316.975 139.200,316.805 139.200 C 316.635 139.200,316.367 141.090,316.209 143.400 C 316.052 145.710,315.760 147.600,315.562 147.600 C 315.363 147.600,315.200 148.579,315.200 149.776 C 315.200 150.973,315.039 152.052,314.843 152.174 C 314.646 152.295,314.357 154.016,314.200 155.997 C 314.043 157.979,313.754 159.600,313.558 159.600 C 313.092 159.600,313.091 156.115,313.556 155.827 C 313.752 155.706,314.042 153.626,314.200 151.204 C 314.358 148.782,314.648 146.800,314.844 146.800 C 315.040 146.800,315.200 145.821,315.200 144.624 C 315.200 143.427,315.363 142.347,315.561 142.224 C 315.760 142.101,316.052 140.108,316.210 137.794 C 316.367 135.481,316.637 133.501,316.809 133.395 C 316.980 133.288,317.251 131.128,317.409 128.595 C 317.567 126.061,317.855 123.890,318.048 123.770 C 318.242 123.651,318.400 122.588,318.400 121.410 C 318.400 120.231,318.568 119.207,318.773 119.133 C 318.978 119.060,319.273 116.795,319.429 114.100 C 319.586 111.405,319.868 109.200,320.057 109.200 C 320.245 109.200,320.400 106.770,320.400 103.800 L 320.400 98.400 318.056 98.400 C 311.959 98.400,310.106 99.953,313.000 102.635 C 314.300 103.840,314.351 105.656,313.100 106.205 C 312.178 106.610,311.525 109.200,312.345 109.200 C 312.775 109.200,314.000 111.423,314.000 112.203 C 314.000 112.537,313.395 112.624,312.000 112.490 C 310.900 112.385,309.976 112.456,309.946 112.649 C 309.916 112.842,309.781 116.600,309.646 121.000 C 309.406 128.801,309.378 129.010,308.500 129.395 C 307.099 130.009,307.172 133.406,308.594 133.763 C 309.207 133.917,309.683 134.393,309.837 135.006 C 309.974 135.553,310.247 136.000,310.443 136.000 C 311.560 136.000,310.552 136.772,309.300 136.876 L 307.800 137.000 307.685 140.700 L 307.570 144.400 306.185 144.400 L 304.800 144.400 304.800 147.800 C 304.800 149.800,304.965 151.200,305.200 151.200 C 305.443 151.200,305.600 153.000,305.600 155.800 C 305.600 158.600,305.757 160.400,306.000 160.400 C 307.257 160.400,306.387 163.951,305.100 164.075 C 303.818 164.198,302.744 166.800,303.975 166.800 C 304.486 166.800,304.553 170.259,304.047 170.571 C 303.853 170.691,303.571 172.006,303.419 173.494 C 303.268 174.982,302.942 176.673,302.696 177.252 L 302.247 178.304 285.224 178.598 C 275.861 178.760,268.110 179.031,268.000 179.200 C 267.749 179.586,245.182 180.298,244.954 179.928 C 244.862 179.778,244.951 179.554,245.151 179.430 C 245.351 179.307,245.643 177.583,245.800 175.600 C 245.957 173.617,246.225 171.908,246.395 171.803 C 246.565 171.698,246.832 170.079,246.988 168.206 C 247.144 166.333,247.436 164.800,247.636 164.800 C 247.836 164.800,248.000 163.900,248.000 162.800 C 248.000 161.700,248.164 160.800,248.364 160.800 C 248.564 160.800,248.856 159.270,249.011 157.400 C 249.167 155.530,249.440 154.000,249.617 154.000 C 249.795 154.000,250.067 152.380,250.222 150.400 C 250.376 148.420,250.660 146.800,250.852 146.800 C 251.043 146.800,251.200 146.001,251.200 145.024 C 251.200 144.047,251.363 143.146,251.563 143.023 C 251.762 142.900,252.054 141.089,252.210 138.999 C 252.367 136.910,252.639 135.200,252.816 135.200 C 252.992 135.200,253.264 133.396,253.420 131.191 C 253.576 128.987,253.861 127.086,254.052 126.968 C 254.243 126.850,254.400 125.503,254.400 123.976 C 254.400 122.392,254.572 121.200,254.800 121.200 C 255.037 121.200,255.200 119.741,255.200 117.624 C 255.200 115.657,255.020 113.936,254.800 113.800 C 254.580 113.664,254.400 113.133,254.400 112.619 C 254.400 111.505,253.740 111.200,251.331 111.200 C 249.145 111.200,247.200 112.738,247.200 114.466 C 247.200 116.308,246.812 116.800,245.357 116.800 C 244.611 116.800,244.000 116.642,244.000 116.450 C 244.000 116.258,243.460 115.992,242.800 115.860 C 242.096 115.719,241.600 115.368,241.600 115.010 C 241.600 114.675,241.436 114.400,241.236 114.400 C 241.036 114.400,240.754 112.825,240.611 110.900 C 240.467 108.975,240.196 107.040,240.007 106.600 C 239.819 106.160,239.560 105.191,239.432 104.446 C 239.182 102.999,237.898 101.600,236.819 101.600 C 236.456 101.600,235.974 101.414,235.748 101.188 C 235.495 100.935,233.337 100.819,230.168 100.888 L 225.000 101.000 224.800 103.000 C 224.556 105.444,224.009 104.416,223.630 100.800 C 223.315 97.789,220.980 97.234,219.750 99.878 M313.076 162.300 C 312.975 162.685,312.893 162.370,312.893 161.600 C 312.893 160.830,312.975 160.515,313.076 160.900 C 313.176 161.285,313.176 161.915,313.076 162.300 M312.800 165.600 C 312.800 166.260,312.620 166.800,312.400 166.800 C 311.955 166.800,311.848 165.085,312.267 164.667 C 312.719 164.215,312.800 164.357,312.800 165.600 M311.835 169.898 C 311.398 170.335,311.099 169.640,311.412 168.917 C 311.710 168.232,311.732 168.233,311.897 168.931 C 311.993 169.334,311.965 169.769,311.835 169.898 " stroke="none" fill="#3cb4fc" fill-rule="evenodd"></path><path id="path1" d="M141.200 92.771 C 141.200 92.975,140.210 93.266,139.000 93.417 C 137.790 93.568,136.800 93.851,136.800 94.046 C 136.800 94.241,136.350 94.400,135.800 94.400 C 135.250 94.400,134.800 94.555,134.800 94.744 C 134.800 94.934,133.869 95.199,132.730 95.334 C 131.592 95.469,130.557 95.736,130.430 95.928 C 130.304 96.120,129.307 96.396,128.216 96.542 C 127.125 96.688,126.054 96.986,125.836 97.204 C 125.618 97.422,125.116 97.600,124.720 97.600 C 124.324 97.600,124.000 97.755,124.000 97.944 C 124.000 98.134,123.081 98.397,121.958 98.530 C 120.834 98.663,119.709 98.934,119.458 99.132 C 119.206 99.329,118.227 99.609,117.283 99.753 C 116.338 99.897,115.213 100.192,114.783 100.408 C 114.352 100.623,113.678 100.958,113.284 101.151 C 112.890 101.344,111.630 101.631,110.484 101.788 C 109.338 101.946,108.400 102.208,108.400 102.371 C 108.400 102.533,107.365 102.857,106.100 103.090 L 103.800 103.514 100.829 100.557 C 99.195 98.931,97.620 97.600,97.329 97.600 C 97.038 97.600,96.800 97.420,96.800 97.200 C 96.800 96.344,89.039 96.714,88.400 97.600 C 88.083 98.040,87.597 98.400,87.321 98.400 C 87.045 98.400,86.257 99.018,85.571 99.772 C 84.311 101.156,83.370 101.273,82.680 100.130 C 81.953 98.925,78.400 99.461,78.400 100.776 C 78.400 101.423,78.240 102.051,78.045 102.172 C 77.850 102.293,77.572 103.023,77.427 103.796 C 77.282 104.568,77.006 105.200,76.814 105.200 C 76.621 105.200,76.338 105.774,76.184 106.475 C 75.899 107.771,74.618 109.163,73.687 109.187 C 73.406 109.194,73.071 109.470,72.945 109.800 C 72.818 110.130,72.284 110.400,71.757 110.400 C 71.231 110.400,70.800 110.554,70.800 110.742 C 70.800 110.931,69.409 111.190,67.708 111.318 C 66.007 111.447,64.552 111.743,64.475 111.976 C 64.397 112.209,64.094 112.400,63.802 112.400 C 63.510 112.400,62.802 112.985,62.230 113.700 C 61.657 114.415,61.032 115.195,60.840 115.433 C 60.649 115.672,60.366 116.616,60.212 117.531 C 60.057 118.447,59.766 119.297,59.565 119.422 C 59.364 119.546,59.200 120.231,59.200 120.944 C 59.200 121.657,59.016 122.424,58.791 122.649 C 58.555 122.885,58.274 126.645,58.127 131.529 C 57.987 136.188,57.722 140.000,57.537 140.000 C 56.014 140.000,57.295 144.598,59.400 146.687 C 60.610 147.887,61.600 149.124,61.600 149.435 C 61.600 149.746,61.780 150.000,62.000 150.000 C 62.220 150.000,62.400 150.188,62.400 150.417 C 62.400 150.646,62.746 151.205,63.169 151.659 C 63.928 152.474,63.928 152.503,63.169 153.855 C 62.364 155.289,62.111 158.400,62.800 158.400 C 63.020 158.400,63.200 158.670,63.200 159.000 C 63.200 159.330,63.470 159.600,63.800 159.600 C 64.130 159.600,64.400 159.772,64.400 159.982 C 64.400 160.192,65.075 160.472,65.900 160.604 C 66.725 160.736,67.713 161.014,68.095 161.222 C 68.477 161.430,69.806 161.600,71.049 161.600 L 73.308 161.600 73.021 166.700 C 72.863 169.505,72.569 171.860,72.367 171.933 C 72.165 172.007,72.000 173.121,72.000 174.410 C 72.000 175.698,71.842 176.851,71.648 176.970 C 71.455 177.090,71.165 179.125,71.004 181.494 C 70.844 183.862,70.541 185.908,70.330 186.040 C 69.808 186.367,68.000 185.990,68.000 185.553 C 68.000 184.981,65.993 185.149,65.368 185.774 C 65.023 186.120,64.694 187.592,64.542 189.474 C 64.404 191.193,64.141 192.792,63.958 193.026 C 63.775 193.260,63.502 196.185,63.351 199.526 L 63.077 205.600 61.929 205.600 C 60.622 205.600,60.000 206.705,60.000 209.026 C 60.000 209.782,59.820 210.400,59.600 210.400 C 59.365 210.400,59.200 211.792,59.200 213.776 C 59.200 215.633,59.038 217.253,58.841 217.375 C 58.643 217.497,58.350 221.018,58.190 225.198 C 58.029 229.379,57.760 232.800,57.592 232.800 C 57.424 232.800,57.155 235.950,56.994 239.800 C 56.834 243.650,56.545 246.800,56.351 246.800 C 56.158 246.800,56.000 248.240,56.000 250.000 C 56.000 251.760,55.842 253.200,55.648 253.200 C 55.455 253.200,55.166 255.630,55.007 258.600 C 54.848 261.570,54.580 264.000,54.410 264.000 C 54.241 264.000,53.974 266.160,53.816 268.800 C 53.659 271.440,53.366 273.600,53.165 273.600 C 52.964 273.600,52.800 274.485,52.800 275.567 C 52.800 276.761,52.608 277.597,52.311 277.696 C 51.949 277.817,51.780 280.334,51.664 287.315 L 51.507 296.771 53.322 298.585 C 54.320 299.583,55.511 300.400,55.968 300.400 C 56.426 300.400,56.800 300.580,56.800 300.800 C 56.800 301.020,57.115 301.203,57.500 301.206 C 58.689 301.217,59.411 301.863,58.910 302.470 C 58.670 302.761,58.342 305.475,58.182 308.500 C 58.023 311.525,57.736 314.000,57.546 314.000 C 57.356 314.000,57.200 316.700,57.200 320.000 L 57.200 326.000 58.800 326.000 C 59.680 326.000,60.400 326.158,60.400 326.352 C 60.400 326.545,63.190 326.834,66.600 326.994 C 70.010 327.153,72.800 327.445,72.800 327.642 C 72.800 328.134,75.493 328.096,75.800 327.600 C 75.936 327.380,76.549 327.200,77.162 327.200 C 78.276 327.200,79.600 326.151,79.600 325.269 C 79.600 325.011,79.777 324.800,79.992 324.800 C 80.208 324.800,80.498 324.350,80.636 323.800 C 80.774 323.250,81.026 322.800,81.197 322.800 C 81.367 322.800,81.612 322.485,81.742 322.100 C 81.997 321.340,82.851 319.921,83.246 319.600 C 83.381 319.490,83.632 318.950,83.803 318.400 C 83.974 317.850,84.437 317.119,84.830 316.776 C 85.224 316.433,85.668 315.668,85.817 315.076 C 85.965 314.484,86.239 314.000,86.425 314.000 C 86.611 314.000,86.882 313.370,87.026 312.600 C 87.171 311.830,87.449 311.200,87.645 311.200 C 87.840 311.200,88.000 310.930,88.000 310.600 C 88.000 310.270,88.160 310.000,88.357 310.000 C 88.553 310.000,88.826 309.550,88.964 309.000 C 89.102 308.450,89.376 308.000,89.572 308.000 C 89.769 308.000,90.051 307.280,90.200 306.400 C 90.349 305.520,90.634 304.800,90.835 304.800 C 91.036 304.800,91.200 304.530,91.200 304.200 C 91.200 303.870,91.378 303.600,91.595 303.600 C 91.813 303.600,92.106 302.880,92.246 302.000 C 92.387 301.120,92.646 300.400,92.822 300.400 C 92.998 300.400,93.266 299.410,93.417 298.200 C 93.568 296.990,93.851 296.000,94.046 296.000 C 94.241 296.000,94.400 294.571,94.400 292.824 C 94.400 291.077,94.580 289.536,94.800 289.400 C 95.324 289.076,95.324 284.000,94.800 284.000 C 94.567 284.000,94.400 282.667,94.400 280.800 C 94.400 278.933,94.233 277.600,94.000 277.600 C 93.303 277.600,93.568 276.212,94.360 275.718 C 95.463 275.029,96.013 267.290,95.062 265.839 C 94.485 264.959,94.485 264.827,95.062 264.348 C 95.830 263.711,95.629 258.798,94.794 257.792 C 94.409 257.329,94.388 256.950,94.712 256.286 C 94.950 255.799,95.260 253.240,95.402 250.600 C 95.544 247.960,95.827 245.629,96.030 245.420 C 96.234 245.211,96.402 244.131,96.405 243.020 C 96.414 239.899,96.710 239.200,98.023 239.200 C 98.644 239.200,99.264 239.020,99.400 238.800 C 99.536 238.580,100.447 238.400,101.424 238.400 C 102.401 238.400,103.200 238.241,103.200 238.047 C 103.200 237.853,104.550 237.567,106.200 237.413 C 107.850 237.258,109.200 236.990,109.200 236.818 C 109.200 236.645,110.460 236.379,112.000 236.227 C 113.540 236.076,114.800 235.782,114.800 235.576 C 114.800 235.369,115.520 235.200,116.400 235.200 C 117.280 235.200,118.000 235.038,118.000 234.841 C 118.000 234.643,119.261 234.355,120.802 234.200 C 122.342 234.045,123.692 233.775,123.801 233.599 C 123.910 233.423,125.079 233.153,126.399 233.000 C 127.720 232.847,128.800 232.559,128.800 232.361 C 128.800 232.162,129.430 232.000,130.200 232.000 C 130.970 232.000,131.600 231.838,131.600 231.639 C 131.600 231.441,132.680 231.153,134.001 231.000 C 135.321 230.847,136.491 230.577,136.600 230.400 C 136.709 230.223,137.879 229.953,139.199 229.800 C 140.520 229.647,141.600 229.359,141.600 229.161 C 141.600 228.962,142.230 228.800,143.000 228.800 C 143.770 228.800,144.400 228.640,144.400 228.445 C 144.400 228.250,145.210 227.969,146.200 227.821 C 147.190 227.672,148.000 227.402,148.000 227.221 C 148.000 227.039,148.806 226.770,149.791 226.622 C 150.776 226.475,151.686 226.184,151.814 225.977 C 151.942 225.770,152.487 225.600,153.024 225.600 C 153.561 225.600,154.000 225.440,154.000 225.243 C 154.000 225.047,154.473 224.768,155.051 224.623 C 157.931 223.900,159.765 218.508,157.800 216.543 C 157.037 215.780,157.037 215.237,157.800 214.945 C 158.130 214.818,158.400 214.486,158.400 214.206 C 158.400 213.927,158.670 213.474,159.000 213.200 C 159.330 212.926,159.600 212.289,159.600 211.784 C 159.600 211.280,159.794 210.802,160.032 210.723 C 160.269 210.644,160.565 209.093,160.690 207.277 C 160.814 205.461,161.070 203.880,161.258 203.764 C 161.751 203.460,161.694 193.600,161.200 193.600 C 160.980 193.600,160.800 192.623,160.800 191.429 C 160.800 189.213,160.153 188.000,158.971 188.000 C 158.657 188.000,158.400 187.820,158.400 187.600 C 158.400 187.380,157.500 187.200,156.400 187.200 C 155.300 187.200,154.400 187.020,154.400 186.800 C 154.400 186.580,153.545 186.379,152.500 186.354 C 151.455 186.328,150.960 186.221,151.400 186.115 C 151.840 186.009,152.371 185.760,152.580 185.561 C 152.789 185.363,154.904 185.200,157.280 185.200 L 161.600 185.200 161.600 183.603 C 161.600 180.289,160.907 180.000,152.951 180.000 C 148.780 180.000,145.949 180.158,145.800 180.400 C 145.661 180.625,143.729 180.800,141.376 180.800 C 139.079 180.800,137.200 180.959,137.200 181.154 C 137.200 181.348,133.780 181.639,129.600 181.800 C 125.420 181.961,122.000 182.230,122.000 182.397 C 122.000 182.565,118.308 182.834,113.796 182.995 C 109.284 183.156,105.494 183.448,105.373 183.644 C 104.816 184.545,102.022 184.027,101.758 182.974 C 101.431 181.672,101.966 172.474,102.417 171.632 C 102.604 171.284,102.864 170.325,102.996 169.500 C 103.128 168.675,103.408 168.000,103.618 168.000 C 103.828 168.000,104.000 167.761,104.000 167.470 C 104.000 167.178,104.450 166.517,105.000 166.000 C 105.550 165.483,106.000 164.862,106.000 164.619 C 106.000 164.131,107.419 162.800,107.938 162.800 C 108.120 162.800,108.749 162.260,109.337 161.600 C 109.925 160.940,110.675 160.400,111.003 160.400 C 111.331 160.400,111.600 160.234,111.600 160.032 C 111.600 159.829,112.140 159.545,112.800 159.400 C 113.459 159.255,114.232 158.804,114.517 158.397 C 114.803 157.990,115.524 157.534,116.122 157.384 C 116.719 157.234,117.306 156.951,117.427 156.756 C 117.548 156.560,117.952 156.399,118.324 156.398 C 118.696 156.396,119.516 156.126,120.146 155.798 C 120.776 155.469,121.541 155.200,121.846 155.200 C 122.151 155.200,122.400 155.037,122.400 154.838 C 122.400 154.638,123.300 154.351,124.400 154.200 C 125.500 154.049,126.400 153.783,126.400 153.609 C 126.400 153.435,127.390 153.168,128.600 153.017 C 129.810 152.866,130.800 152.575,130.800 152.371 C 130.800 152.167,131.520 152.000,132.400 152.000 C 133.280 152.000,134.000 151.839,134.000 151.642 C 134.000 151.445,135.440 151.156,137.200 151.000 C 138.960 150.844,140.400 150.555,140.400 150.358 C 140.400 149.806,142.311 149.934,142.501 150.500 C 142.722 151.158,149.521 151.174,149.927 150.519 C 150.087 150.260,152.049 149.943,154.514 149.778 C 156.883 149.619,158.917 149.334,159.034 149.145 C 159.151 148.955,160.551 148.800,162.144 148.800 C 163.737 148.800,165.215 148.625,165.430 148.410 C 166.053 147.787,182.487 147.683,182.697 148.300 C 182.793 148.583,183.530 148.800,184.396 148.800 L 185.925 148.800 186.200 146.800 C 186.351 145.700,186.638 144.800,186.838 144.800 C 187.037 144.800,187.200 143.551,187.200 142.024 C 187.200 140.497,187.380 139.136,187.600 139.000 C 187.820 138.864,188.000 137.965,188.000 137.002 C 188.000 134.928,188.421 133.718,189.562 132.517 C 190.023 132.031,190.400 131.465,190.400 131.260 C 190.400 131.054,190.670 130.782,191.000 130.655 C 191.330 130.529,191.600 130.074,191.600 129.646 C 191.600 129.217,191.779 128.807,191.997 128.733 C 192.215 128.660,192.512 127.205,192.656 125.500 C 192.800 123.795,193.071 122.400,193.259 122.400 C 193.446 122.400,193.600 120.161,193.600 117.424 C 193.600 114.537,193.768 112.343,194.000 112.200 C 194.220 112.064,194.400 111.602,194.400 111.172 C 194.400 110.743,194.760 110.084,195.200 109.707 C 196.720 108.406,196.223 104.000,194.557 104.000 C 193.361 104.000,193.359 103.787,194.544 102.681 C 195.064 102.196,195.616 101.395,195.771 100.900 C 195.927 100.405,196.222 100.000,196.427 100.000 C 197.351 100.000,196.770 97.789,195.717 97.300 C 194.369 96.674,177.381 96.583,177.000 97.200 C 176.853 97.438,174.340 97.600,170.810 97.600 C 167.481 97.600,164.808 97.765,164.733 97.974 C 164.656 98.191,159.211 98.424,151.800 98.527 C 144.760 98.626,140.237 98.629,141.748 98.534 C 145.201 98.317,145.600 97.933,145.600 94.829 L 145.600 92.400 143.400 92.400 C 142.190 92.400,141.200 92.567,141.200 92.771 " stroke="none" fill="#444444" fill-rule="evenodd"></path><path id="path2" d="" stroke="none" fill="#40b8cc" fill-rule="evenodd"></path><path id="path3" d="" stroke="none" fill="#40b8cc" fill-rule="evenodd"></path><path id="path4" d="" stroke="none" fill="#40b8cc" fill-rule="evenodd"></path></g></svg>