<?xml version="1.0" standalone="no"?>
<!DOCTYPE svg PUBLIC "-//W3C//DTD SVG 20010904//EN"
 "http://www.w3.org/TR/2001/REC-SVG-20010904/DTD/svg10.dtd">
<svg version="1.0" xmlns="http://www.w3.org/2000/svg"
 width="500.000000pt" height="500.000000pt" viewBox="0 0 500.000000 500.000000"
 preserveAspectRatio="xMidYMid meet">
<metadata>
Created by potrace 1.16, written by Peter Selinger 2001-2019
</metadata>
<g transform="translate(0.000000,500.000000) scale(0.100000,-0.100000)"
fill="#000000" stroke="none">
<path d="M0 2500 l0 -2500 2500 0 2500 0 0 2500 0 2500 -2500 0 -2500 0 0
-2500z m1812 1310 c-4 -28 -7 -30 -48 -30 -32 0 -44 -4 -44 -15 0 -19 9 -19
315 0 300 18 415 19 415 3 0 -7 -14 -27 -32 -45 l-32 -33 27 0 c37 0 45 -25
18 -54 -17 -18 -21 -35 -21 -95 0 -93 -16 -154 -49 -188 -21 -23 -26 -37 -26
-83 0 -30 -6 -72 -14 -93 -12 -36 -14 -37 -31 -22 -16 14 -34 15 -209 0 -115
-9 -207 -21 -228 -30 -31 -13 -39 -14 -51 -2 -12 12 -25 12 -90 0 -218 -39
-378 -120 -429 -217 -18 -34 -32 -216 -17 -216 5 0 169 13 364 29 367 31 380
31 380 -10 0 -17 -8 -19 -75 -19 -58 0 -75 -3 -75 -14 0 -10 17 -16 58 -21 86
-9 87 -9 90 -110 4 -115 -11 -186 -48 -225 -24 -26 -26 -30 -9 -30 15 0 19 -7
19 -35 0 -41 -14 -50 -135 -89 -82 -26 -390 -100 -547 -131 l-87 -17 -5 -37
c-22 -144 -27 -214 -17 -224 15 -15 14 -37 -4 -57 -14 -15 -14 -18 0 -30 17
-14 20 -46 5 -55 -6 -3 -7 -17 -4 -31 4 -15 2 -24 -6 -24 -8 0 -10 -8 -5 -27
15 -54 14 -187 -1 -242 -18 -64 -76 -182 -146 -298 -56 -94 -41 -88 -193 -70
l-100 12 0 55 c0 30 5 98 12 150 6 52 11 95 10 96 -1 1 -19 9 -40 17 -23 10
-41 26 -47 42 -15 38 -12 150 5 230 19 91 50 366 70 625 21 268 21 270 47 270
14 0 18 5 14 16 -5 14 18 198 30 233 4 11 7 12 16 3 13 -13 48 -16 48 -4 0 4
9 70 20 147 26 187 28 175 -20 175 -44 0 -94 21 -103 43 -3 7 3 24 13 37 15
20 16 26 5 35 -8 5 -15 16 -17 24 -2 7 -16 26 -32 43 l-29 29 6 127 c9 196 42
272 119 272 54 0 97 26 118 72 11 24 20 51 20 61 0 22 18 22 42 0 17 -16 20
-15 51 15 27 26 41 32 77 32 39 0 50 -5 90 -45 l46 -45 249 74 c138 41 255 74
261 75 6 1 9 -11 6 -29z m978 -95 c0 -33 4 -45 15 -45 10 0 15 10 15 30 l0 30
70 0 c85 0 96 -12 107 -114 8 -69 8 -69 47 -82 44 -16 56 -12 56 20 0 33 36
63 58 49 34 -21 25 -125 -45 -505 -37 -197 -64 -360 -62 -363 3 -2 97 2 210
10 112 8 277 15 366 15 l163 0 5 28 c3 15 10 48 16 75 8 36 8 51 -1 62 -10 12
-9 15 10 15 21 0 22 3 15 48 -4 26 -9 82 -10 125 l-3 77 26 0 c20 0 23 3 14
12 -7 7 -12 27 -12 45 0 30 3 33 32 33 29 0 30 1 15 18 -10 10 -17 24 -17 30
0 7 -7 12 -15 12 -8 0 -15 7 -15 15 0 8 7 15 15 15 12 0 15 20 15 117 0 91 3
114 12 105 18 -18 48 -15 48 5 0 9 -8 25 -17 36 -17 18 -17 19 0 32 21 15 22
38 2 55 -29 24 -18 40 29 40 l44 0 -3 -77 c-3 -58 -94 -709 -129 -911 -6 -40
11 -10 28 47 27 91 101 572 132 848 6 62 7 63 43 73 83 22 83 22 97 -55 20
-117 47 -165 91 -165 17 0 23 6 23 23 0 33 28 67 55 67 23 0 24 -3 23 -62 -2
-183 -206 -1332 -394 -2221 -30 -141 -54 -259 -54 -262 0 -11 -28 -4 -40 10
-10 12 -10 19 -2 27 15 15 15 43 0 68 -10 15 -10 22 0 32 7 7 12 42 12 91 0
67 -2 78 -16 75 -12 -2 -30 -46 -62 -155 l-45 -153 -46 0 c-25 0 -51 4 -57 8
-21 14 -33 49 -40 116 -10 101 -44 78 -44 -31 0 -33 -1 -35 -27 -28 -16 3 -32
11 -38 16 -5 6 -12 59 -13 119 -5 138 20 310 95 680 64 318 76 381 69 388 -3
2 -58 1 -123 -3 l-117 -7 43 -38 c25 -20 40 -39 35 -42 -17 -11 -261 -20 -324
-13 l-63 7 34 21 c94 56 95 50 -16 64 -168 20 -150 30 -164 -94 -37 -329 -106
-732 -151 -875 l-21 -68 -53 0 c-31 0 -58 5 -64 13 -13 15 -32 125 -32 185 0
35 -3 42 -19 42 -17 0 -21 -13 -32 -105 l-13 -105 -28 27 c-27 26 -28 31 -28
120 0 84 -2 93 -19 93 -34 0 -45 -28 -48 -118 -2 -80 -7 -102 -18 -90 -3 2 -7
51 -9 109 -3 57 -10 120 -16 139 -17 58 -12 166 20 407 59 442 130 828 197
1068 22 76 40 167 44 220 4 51 24 153 47 238 30 114 36 147 25 147 -10 0 -12
6 -7 23 16 53 24 67 39 67 11 0 15 -11 15 -45z"/>
</g>
</svg>
